<mxfile host="app.diagrams.net" modified="2024-06-11T17:45:19.915Z" agent="Mozilla/5.0 (Windows NT 10.0; Win64; x64) AppleWebKit/537.36 (KHTML, like Gecko) Chrome/125.0.0.0 Safari/537.36" etag="mBuPXSaywkD9G7YrOsvl" version="24.5.3" type="device">
  <diagram id="R2lEEEUBdFMjLlhIrx00" name="Page-1">
    <mxGraphModel dx="1257" dy="657" grid="1" gridSize="10" guides="1" tooltips="1" connect="1" arrows="1" fold="1" page="1" pageScale="1" pageWidth="850" pageHeight="1100" math="0" shadow="0" extFonts="Permanent Marker^https://fonts.googleapis.com/css?family=Permanent+Marker">
      <root>
        <mxCell id="0" />
        <mxCell id="1" parent="0" />
        <mxCell id="61jdYvsI5r1uLZ1NyuPi-1" value="Person" style="swimlane;fontStyle=0;childLayout=stackLayout;horizontal=1;startSize=26;horizontalStack=0;resizeParent=1;resizeParentMax=0;resizeLast=0;collapsible=1;marginBottom=0;align=center;fontSize=14;" parent="1" vertex="1">
          <mxGeometry x="50" y="170" width="160" height="150" as="geometry" />
        </mxCell>
        <mxCell id="61jdYvsI5r1uLZ1NyuPi-2" value="&lt;u&gt;person_id&lt;/u&gt;" style="text;strokeColor=none;fillColor=none;spacingLeft=4;spacingRight=4;overflow=hidden;rotatable=0;points=[[0,0.5],[1,0.5]];portConstraint=eastwest;fontSize=12;whiteSpace=wrap;html=1;" parent="61jdYvsI5r1uLZ1NyuPi-1" vertex="1">
          <mxGeometry y="26" width="160" height="30" as="geometry" />
        </mxCell>
        <mxCell id="61jdYvsI5r1uLZ1NyuPi-3" value="phone no" style="text;strokeColor=none;fillColor=none;spacingLeft=4;spacingRight=4;overflow=hidden;rotatable=0;points=[[0,0.5],[1,0.5]];portConstraint=eastwest;fontSize=12;whiteSpace=wrap;html=1;" parent="61jdYvsI5r1uLZ1NyuPi-1" vertex="1">
          <mxGeometry y="56" width="160" height="30" as="geometry" />
        </mxCell>
        <mxCell id="61jdYvsI5r1uLZ1NyuPi-4" value="&lt;div&gt;name&lt;/div&gt;&lt;div&gt;&lt;br&gt;&lt;/div&gt;&lt;div&gt;email&lt;/div&gt;" style="text;strokeColor=none;fillColor=none;spacingLeft=4;spacingRight=4;overflow=hidden;rotatable=0;points=[[0,0.5],[1,0.5]];portConstraint=eastwest;fontSize=12;whiteSpace=wrap;html=1;" parent="61jdYvsI5r1uLZ1NyuPi-1" vertex="1">
          <mxGeometry y="86" width="160" height="64" as="geometry" />
        </mxCell>
        <mxCell id="61jdYvsI5r1uLZ1NyuPi-15" value="Supplier" style="swimlane;fontStyle=0;childLayout=stackLayout;horizontal=1;startSize=26;horizontalStack=0;resizeParent=1;resizeParentMax=0;resizeLast=0;collapsible=1;marginBottom=0;align=center;fontSize=14;" parent="1" vertex="1">
          <mxGeometry x="400" y="330" width="160" height="56" as="geometry" />
        </mxCell>
        <mxCell id="61jdYvsI5r1uLZ1NyuPi-16" value="&lt;u&gt;supplier_id&lt;/u&gt;" style="text;strokeColor=none;fillColor=none;spacingLeft=4;spacingRight=4;overflow=hidden;rotatable=0;points=[[0,0.5],[1,0.5]];portConstraint=eastwest;fontSize=12;whiteSpace=wrap;html=1;" parent="61jdYvsI5r1uLZ1NyuPi-15" vertex="1">
          <mxGeometry y="26" width="160" height="30" as="geometry" />
        </mxCell>
        <mxCell id="Wf4AMGDqsId_9iNXn1xN-45" value="Sales_Order" style="swimlane;fontStyle=0;childLayout=stackLayout;horizontal=1;startSize=26;horizontalStack=0;resizeParent=1;resizeParentMax=0;resizeLast=0;collapsible=1;marginBottom=0;align=center;fontSize=14;" parent="1" vertex="1">
          <mxGeometry x="940" y="77" width="160" height="140" as="geometry" />
        </mxCell>
        <mxCell id="Wf4AMGDqsId_9iNXn1xN-46" value="&lt;u&gt;order_id&lt;/u&gt;" style="text;strokeColor=none;fillColor=none;spacingLeft=4;spacingRight=4;overflow=hidden;rotatable=0;points=[[0,0.5],[1,0.5]];portConstraint=eastwest;fontSize=12;whiteSpace=wrap;html=1;" parent="Wf4AMGDqsId_9iNXn1xN-45" vertex="1">
          <mxGeometry y="26" width="160" height="30" as="geometry" />
        </mxCell>
        <mxCell id="Wf4AMGDqsId_9iNXn1xN-47" value="order_date&lt;div&gt;&lt;br&gt;&lt;/div&gt;&lt;div&gt;Cusotmer_id&lt;/div&gt;&lt;div&gt;&lt;br&gt;&lt;/div&gt;&lt;div&gt;product_id&lt;/div&gt;" style="text;strokeColor=none;fillColor=none;spacingLeft=4;spacingRight=4;overflow=hidden;rotatable=0;points=[[0,0.5],[1,0.5]];portConstraint=eastwest;fontSize=12;whiteSpace=wrap;html=1;" parent="Wf4AMGDqsId_9iNXn1xN-45" vertex="1">
          <mxGeometry y="56" width="160" height="84" as="geometry" />
        </mxCell>
        <mxCell id="Wf4AMGDqsId_9iNXn1xN-51" value="Product" style="swimlane;fontStyle=0;childLayout=stackLayout;horizontal=1;startSize=26;horizontalStack=0;resizeParent=1;resizeParentMax=0;resizeLast=0;collapsible=1;marginBottom=0;align=center;fontSize=14;" parent="1" vertex="1">
          <mxGeometry x="740" y="475" width="160" height="170" as="geometry" />
        </mxCell>
        <mxCell id="Wf4AMGDqsId_9iNXn1xN-52" value="&lt;u&gt;product_id&lt;/u&gt;&lt;div&gt;&lt;br&gt;&lt;/div&gt;" style="text;strokeColor=none;fillColor=none;spacingLeft=4;spacingRight=4;overflow=hidden;rotatable=0;points=[[0,0.5],[1,0.5]];portConstraint=eastwest;fontSize=12;whiteSpace=wrap;html=1;" parent="Wf4AMGDqsId_9iNXn1xN-51" vertex="1">
          <mxGeometry y="26" width="160" height="30" as="geometry" />
        </mxCell>
        <mxCell id="Wf4AMGDqsId_9iNXn1xN-53" value="product_name&lt;div&gt;&lt;br&gt;&lt;/div&gt;&lt;div&gt;price&lt;div&gt;&lt;br&gt;&lt;/div&gt;&lt;/div&gt;&lt;div&gt;Quantity&lt;/div&gt;&lt;div&gt;&lt;br&gt;&lt;/div&gt;&lt;div&gt;supplier_id&lt;/div&gt;" style="text;strokeColor=none;fillColor=none;spacingLeft=4;spacingRight=4;overflow=hidden;rotatable=0;points=[[0,0.5],[1,0.5]];portConstraint=eastwest;fontSize=12;whiteSpace=wrap;html=1;" parent="Wf4AMGDqsId_9iNXn1xN-51" vertex="1">
          <mxGeometry y="56" width="160" height="114" as="geometry" />
        </mxCell>
        <mxCell id="f2D1zIgpTVbD0zK2mDGT-21" value="Customer" style="swimlane;fontStyle=0;childLayout=stackLayout;horizontal=1;startSize=26;horizontalStack=0;resizeParent=1;resizeParentMax=0;resizeLast=0;collapsible=1;marginBottom=0;align=center;fontSize=14;" parent="1" vertex="1">
          <mxGeometry x="380" y="100" width="190" height="70" as="geometry" />
        </mxCell>
        <mxCell id="f2D1zIgpTVbD0zK2mDGT-23" value="&lt;div&gt;&lt;u&gt;&lt;span style=&quot;background-color: initial;&quot;&gt;customer_id&lt;/span&gt;&lt;br&gt;&lt;/u&gt;&lt;/div&gt;&lt;div&gt;&lt;div&gt;&lt;u&gt;&lt;br&gt;&lt;/u&gt;&lt;/div&gt;&lt;div&gt;&lt;br&gt;&lt;/div&gt;&lt;/div&gt;" style="text;strokeColor=none;fillColor=none;spacingLeft=4;spacingRight=4;overflow=hidden;rotatable=0;points=[[0,0.5],[1,0.5]];portConstraint=eastwest;fontSize=12;whiteSpace=wrap;html=1;" parent="f2D1zIgpTVbD0zK2mDGT-21" vertex="1">
          <mxGeometry y="26" width="190" height="44" as="geometry" />
        </mxCell>
        <mxCell id="k100xpH_TxPFPGkceo22-17" style="edgeStyle=orthogonalEdgeStyle;rounded=0;orthogonalLoop=1;jettySize=auto;html=1;entryX=1;entryY=0.5;entryDx=0;entryDy=0;exitX=1;exitY=0.5;exitDx=0;exitDy=0;" parent="1" source="Wf4AMGDqsId_9iNXn1xN-52" target="Wf4AMGDqsId_9iNXn1xN-47" edge="1">
          <mxGeometry relative="1" as="geometry">
            <mxPoint x="1170" y="490" as="sourcePoint" />
          </mxGeometry>
        </mxCell>
        <mxCell id="mAjkCxwuAcZQ8xZ4JuDI-1" style="edgeStyle=orthogonalEdgeStyle;rounded=0;orthogonalLoop=1;jettySize=auto;html=1;" edge="1" parent="1" source="61jdYvsI5r1uLZ1NyuPi-3" target="f2D1zIgpTVbD0zK2mDGT-23">
          <mxGeometry relative="1" as="geometry" />
        </mxCell>
        <mxCell id="mAjkCxwuAcZQ8xZ4JuDI-2" style="edgeStyle=orthogonalEdgeStyle;rounded=0;orthogonalLoop=1;jettySize=auto;html=1;exitX=1;exitY=0.5;exitDx=0;exitDy=0;entryX=0;entryY=0.5;entryDx=0;entryDy=0;" edge="1" parent="1" source="61jdYvsI5r1uLZ1NyuPi-4" target="61jdYvsI5r1uLZ1NyuPi-16">
          <mxGeometry relative="1" as="geometry" />
        </mxCell>
        <mxCell id="mAjkCxwuAcZQ8xZ4JuDI-4" value="" style="endArrow=classic;html=1;rounded=0;exitX=0;exitY=0.5;exitDx=0;exitDy=0;entryX=1;entryY=0.5;entryDx=0;entryDy=0;" edge="1" parent="1" source="Wf4AMGDqsId_9iNXn1xN-47" target="f2D1zIgpTVbD0zK2mDGT-23">
          <mxGeometry width="50" height="50" relative="1" as="geometry">
            <mxPoint x="780" y="280" as="sourcePoint" />
            <mxPoint x="830" y="230" as="targetPoint" />
          </mxGeometry>
        </mxCell>
        <mxCell id="mAjkCxwuAcZQ8xZ4JuDI-5" value="" style="endArrow=classic;html=1;rounded=0;exitX=0.01;exitY=0.907;exitDx=0;exitDy=0;exitPerimeter=0;entryX=1;entryY=0.5;entryDx=0;entryDy=0;" edge="1" parent="1" source="Wf4AMGDqsId_9iNXn1xN-53" target="61jdYvsI5r1uLZ1NyuPi-16">
          <mxGeometry width="50" height="50" relative="1" as="geometry">
            <mxPoint x="510" y="500" as="sourcePoint" />
            <mxPoint x="560" y="450" as="targetPoint" />
            <Array as="points">
              <mxPoint x="670" y="370" />
            </Array>
          </mxGeometry>
        </mxCell>
      </root>
    </mxGraphModel>
  </diagram>
</mxfile>
